<svg xmlns="http://www.w3.org/2000/svg"
  xmlns:xlink="http://www.w3.org/1999/xlink" width="300" zoomAndPan="magnify" viewBox="0 0 224.87999 74.999997" height="100" preserveAspectRatio="xMidYMid meet" version="1.0">
  <defs>
    <g/>
  </defs>
  <g fill="#000000" fill-opacity="1">
    <g transform="translate(2.572268, 51.599003)">
      <g>
        <path d="M 32.59375 -24.90625 C 35.257812 -22.007812 36.59375 -18.453125 36.59375 -14.234375 C 36.59375 -10.023438 35.257812 -6.460938 32.59375 -3.546875 C 29.9375 -0.628906 26.554688 0.828125 22.453125 0.828125 C 18.679688 0.828125 15.578125 -0.351562 13.140625 -2.71875 L 13.140625 14.40625 L 3.328125 14.40625 L 3.328125 -28.4375 L 13.03125 -28.4375 L 13.03125 -25.21875 L 13.140625 -25.21875 C 15.578125 -27.914062 18.679688 -29.265625 22.453125 -29.265625 C 26.554688 -29.265625 29.9375 -27.8125 32.59375 -24.90625 Z M 24.25 -9.421875 C 25.53125 -10.679688 26.171875 -12.289062 26.171875 -14.25 C 26.171875 -16.207031 25.554688 -17.804688 24.328125 -19.046875 C 23.109375 -20.285156 21.503906 -20.90625 19.515625 -20.90625 C 17.585938 -20.90625 16.003906 -20.273438 14.765625 -19.015625 C 13.535156 -17.753906 12.921875 -16.164062 12.921875 -14.25 C 12.921875 -12.289062 13.554688 -10.679688 14.828125 -9.421875 C 16.097656 -8.171875 17.660156 -7.546875 19.515625 -7.546875 C 21.398438 -7.546875 22.976562 -8.171875 24.25 -9.421875 Z M 24.25 -9.421875 "/>
      </g>
    </g>
  </g>
  <g fill="#000000" fill-opacity="1">
    <g transform="translate(37.65928, 51.599003)">
      <g>
        <path d="M 5.265625 -3.515625 C 2.609375 -6.421875 1.28125 -9.976562 1.28125 -14.1875 C 1.28125 -18.40625 2.609375 -21.972656 5.265625 -24.890625 C 7.929688 -27.804688 11.3125 -29.265625 15.40625 -29.265625 C 19.175781 -29.265625 22.28125 -28.082031 24.71875 -25.71875 L 24.71875 -28.4375 L 34.53125 -28.4375 L 34.53125 0 L 24.84375 0 L 24.84375 -3.21875 L 24.71875 -3.21875 C 22.28125 -0.519531 19.175781 0.828125 15.40625 0.828125 C 11.3125 0.828125 7.929688 -0.617188 5.265625 -3.515625 Z M 13.609375 -19.015625 C 12.335938 -17.753906 11.703125 -16.144531 11.703125 -14.1875 C 11.703125 -12.226562 12.3125 -10.628906 13.53125 -9.390625 C 14.75 -8.160156 16.351562 -7.546875 18.34375 -7.546875 C 20.269531 -7.546875 21.851562 -8.171875 23.09375 -9.421875 C 24.332031 -10.679688 24.953125 -12.269531 24.953125 -14.1875 C 24.953125 -16.144531 24.3125 -17.753906 23.03125 -19.015625 C 21.757812 -20.273438 20.195312 -20.90625 18.34375 -20.90625 C 16.457031 -20.90625 14.878906 -20.273438 13.609375 -19.015625 Z M 13.609375 -19.015625 "/>
      </g>
    </g>
  </g>
  <g fill="#000000" fill-opacity="1">
    <g transform="translate(72.746292, 51.599003)">
      <g>
        <path d="M 4.984375 -28.4375 L 4.984375 -39.03125 L 14.796875 -39.03125 L 14.796875 -28.4375 L 20.796875 -28.4375 L 20.796875 -20.953125 L 14.796875 -20.953125 L 14.796875 -11.921875 C 14.796875 -9.296875 15.535156 -7.984375 17.015625 -7.984375 C 17.390625 -7.984375 17.78125 -8.054688 18.1875 -8.203125 C 18.59375 -8.347656 18.90625 -8.492188 19.125 -8.640625 L 19.453125 -8.875 L 21.890625 -0.9375 C 19.785156 0.238281 17.382812 0.828125 14.6875 0.828125 C 12.84375 0.828125 11.253906 0.503906 9.921875 -0.140625 C 8.585938 -0.785156 7.578125 -1.648438 6.890625 -2.734375 C 6.210938 -3.828125 5.722656 -4.972656 5.421875 -6.171875 C 5.128906 -7.378906 4.984375 -8.664062 4.984375 -10.03125 L 4.984375 -20.953125 L 0.890625 -20.953125 L 0.890625 -28.4375 Z M 4.984375 -28.4375 "/>
      </g>
    </g>
  </g>
  <g fill="#000000" fill-opacity="1">
    <g transform="translate(91.869168, 51.599003)">
      <g>
        <path d="M 3.328125 0 L 3.328125 -28.4375 L 13.140625 -28.4375 L 13.140625 -24.34375 L 13.25 -24.34375 C 13.320312 -24.488281 13.441406 -24.671875 13.609375 -24.890625 C 13.773438 -25.109375 14.132812 -25.492188 14.6875 -26.046875 C 15.238281 -26.609375 15.828125 -27.109375 16.453125 -27.546875 C 17.085938 -27.992188 17.90625 -28.390625 18.90625 -28.734375 C 19.90625 -29.085938 20.921875 -29.265625 21.953125 -29.265625 C 23.023438 -29.265625 24.078125 -29.117188 25.109375 -28.828125 C 26.148438 -28.535156 26.910156 -28.238281 27.390625 -27.9375 L 28.15625 -27.5 L 24.0625 -19.1875 C 22.84375 -20.21875 21.140625 -20.734375 18.953125 -20.734375 C 17.773438 -20.734375 16.757812 -20.472656 15.90625 -19.953125 C 15.0625 -19.441406 14.460938 -18.816406 14.109375 -18.078125 C 13.753906 -17.335938 13.503906 -16.707031 13.359375 -16.1875 C 13.210938 -15.664062 13.140625 -15.257812 13.140625 -14.96875 L 13.140625 0 Z M 3.328125 0 "/>
      </g>
    </g>
  </g>
  <g fill="#000000" fill-opacity="1">
    <g transform="translate(116.701448, 51.599003)">
      <g>
        <path d="M 4.265625 -44.296875 C 5.410156 -45.441406 6.773438 -46.015625 8.359375 -46.015625 C 9.953125 -46.015625 11.320312 -45.441406 12.46875 -44.296875 C 13.613281 -43.148438 14.1875 -41.78125 14.1875 -40.1875 C 14.1875 -38.601562 13.613281 -37.238281 12.46875 -36.09375 C 11.320312 -34.945312 9.953125 -34.375 8.359375 -34.375 C 6.773438 -34.375 5.410156 -34.945312 4.265625 -36.09375 C 3.117188 -37.238281 2.546875 -38.601562 2.546875 -40.1875 C 2.546875 -41.78125 3.117188 -43.148438 4.265625 -44.296875 Z M 3.328125 -28.4375 L 3.328125 0 L 13.140625 0 L 13.140625 -28.4375 Z M 3.328125 -28.4375 "/>
      </g>
    </g>
  </g>
  <g fill="#000000" fill-opacity="1">
    <g transform="translate(130.669259, 51.599003)">
      <g>
        <path d="M 18.453125 -21.234375 C 16.609375 -21.234375 15.019531 -20.546875 13.6875 -19.171875 C 12.363281 -17.804688 11.703125 -16.164062 11.703125 -14.25 C 11.703125 -12.289062 12.363281 -10.625 13.6875 -9.25 C 15.019531 -7.882812 16.609375 -7.203125 18.453125 -7.203125 C 19.347656 -7.203125 20.191406 -7.3125 20.984375 -7.53125 C 21.773438 -7.757812 22.359375 -7.984375 22.734375 -8.203125 L 23.234375 -8.53125 L 26.546875 -1.71875 C 26.296875 -1.53125 25.9375 -1.296875 25.46875 -1.015625 C 25.007812 -0.742188 23.957031 -0.367188 22.3125 0.109375 C 20.664062 0.585938 18.898438 0.828125 17.015625 0.828125 C 12.835938 0.828125 9.171875 -0.640625 6.015625 -3.578125 C 2.859375 -6.515625 1.28125 -10.035156 1.28125 -14.140625 C 1.28125 -18.273438 2.859375 -21.828125 6.015625 -24.796875 C 9.171875 -27.773438 12.835938 -29.265625 17.015625 -29.265625 C 18.898438 -29.265625 20.632812 -29.039062 22.21875 -28.59375 C 23.8125 -28.15625 24.941406 -27.71875 25.609375 -27.28125 L 26.546875 -26.609375 L 23.234375 -19.90625 C 22.015625 -20.789062 20.421875 -21.234375 18.453125 -21.234375 Z M 18.453125 -21.234375 "/>
      </g>
    </g>
  </g>
  <g fill="#000000" fill-opacity="1">
    <g transform="translate(155.113523, 51.599003)">
      <g>
        <path d="M 9.640625 -11.859375 C 11.421875 -11.859375 12.925781 -11.238281 14.15625 -10 C 15.394531 -8.769531 16.015625 -7.265625 16.015625 -5.484375 C 16.015625 -3.742188 15.394531 -2.253906 14.15625 -1.015625 C 12.925781 0.210938 11.421875 0.828125 9.640625 0.828125 C 7.910156 0.828125 6.425781 0.210938 5.1875 -1.015625 C 3.945312 -2.253906 3.328125 -3.742188 3.328125 -5.484375 C 3.328125 -7.265625 3.945312 -8.769531 5.1875 -10 C 6.425781 -11.238281 7.910156 -11.859375 9.640625 -11.859375 Z M 9.640625 -11.859375 "/>
      </g>
    </g>
  </g>
  <g fill="#000000" fill-opacity="1">
    <g transform="translate(171.686586, 51.599003)">
      <g>
        <path d="M 4.265625 -44.296875 C 5.410156 -45.441406 6.773438 -46.015625 8.359375 -46.015625 C 9.953125 -46.015625 11.320312 -45.441406 12.46875 -44.296875 C 13.613281 -43.148438 14.1875 -41.78125 14.1875 -40.1875 C 14.1875 -38.601562 13.613281 -37.238281 12.46875 -36.09375 C 11.320312 -34.945312 9.953125 -34.375 8.359375 -34.375 C 6.773438 -34.375 5.410156 -34.945312 4.265625 -36.09375 C 3.117188 -37.238281 2.546875 -38.601562 2.546875 -40.1875 C 2.546875 -41.78125 3.117188 -43.148438 4.265625 -44.296875 Z M 3.328125 -28.4375 L 3.328125 0 L 13.140625 0 L 13.140625 -28.4375 Z M 3.328125 -28.4375 "/>
      </g>
    </g>
  </g>
  <g fill="#000000" fill-opacity="1">
    <g transform="translate(185.654396, 51.599003)">
      <g>
        <path d="M 6.015625 -3.375 C 2.859375 -6.1875 1.28125 -9.789062 1.28125 -14.1875 C 1.28125 -18.59375 2.921875 -22.207031 6.203125 -25.03125 C 9.492188 -27.851562 13.5625 -29.265625 18.40625 -29.265625 C 23.175781 -29.265625 27.195312 -27.84375 30.46875 -25 C 33.738281 -22.15625 35.375 -18.550781 35.375 -14.1875 C 35.375 -9.832031 33.773438 -6.238281 30.578125 -3.40625 C 27.378906 -0.582031 23.320312 0.828125 18.40625 0.828125 C 13.300781 0.828125 9.171875 -0.570312 6.015625 -3.375 Z M 13.609375 -19.015625 C 12.335938 -17.753906 11.703125 -16.144531 11.703125 -14.1875 C 11.703125 -12.226562 12.3125 -10.628906 13.53125 -9.390625 C 14.75 -8.160156 16.351562 -7.546875 18.34375 -7.546875 C 20.269531 -7.546875 21.851562 -8.171875 23.09375 -9.421875 C 24.332031 -10.679688 24.953125 -12.269531 24.953125 -14.1875 C 24.953125 -16.144531 24.3125 -17.753906 23.03125 -19.015625 C 21.757812 -20.273438 20.195312 -20.90625 18.34375 -20.90625 C 16.457031 -20.90625 14.878906 -20.273438 13.609375 -19.015625 Z M 13.609375 -19.015625 "/>
      </g>
    </g>
  </g>
</svg>
